<svg width="117" height="57" viewBox="0 0 117 57" fill="none" xmlns="http://www.w3.org/2000/svg">
<path d="M2.80801 56.232C1.99201 56.232 1.32001 55.968 0.792008 55.44C0.264007 54.912 6.97374e-06 54.24 6.97374e-06 53.424V2.808C6.97374e-06 1.992 0.264007 1.32 0.792008 0.791999C1.32001 0.264 1.99201 9.53674e-07 2.80801 9.53674e-07H17.208C20.76 9.53674e-07 23.904 0.792001 26.64 2.376C29.376 3.912 31.512 6.048 33.048 8.784C34.584 11.52 35.352 14.688 35.352 18.288C35.352 21.792 34.584 24.912 33.048 27.648C31.512 30.336 29.376 32.472 26.64 34.056C23.904 35.592 20.76 36.36 17.208 36.36H5.61601V53.424C5.61601 54.24 5.35201 54.912 4.82401 55.44C4.29601 55.968 3.62401 56.232 2.80801 56.232ZM5.61601 30.96H17.208C19.656 30.96 21.84 30.432 23.76 29.376C25.68 28.272 27.168 26.76 28.224 24.84C29.328 22.92 29.88 20.736 29.88 18.288C29.88 15.744 29.328 13.512 28.224 11.592C27.168 9.672 25.68 8.16 23.76 7.056C21.84 5.952 19.656 5.4 17.208 5.4H5.61601V30.96ZM50.7819 56.232C48.8619 56.232 47.1339 55.704 45.5979 54.648C44.1099 53.592 42.9339 52.128 42.0699 50.256C41.2539 48.384 40.8459 46.224 40.8459 43.776V2.736C40.8459 1.92 41.0859 1.272 41.5659 0.791999C42.0939 0.264 42.7659 9.53674e-07 43.5819 9.53674e-07C44.3979 9.53674e-07 45.0459 0.264 45.5259 0.791999C46.0539 1.272 46.3179 1.92 46.3179 2.736V43.776C46.3179 45.84 46.7259 47.52 47.5419 48.816C48.4059 50.112 49.4859 50.76 50.7819 50.76H52.5819C53.3019 50.76 53.8779 51.024 54.3099 51.552C54.7419 52.032 54.9579 52.68 54.9579 53.496C54.9579 54.312 54.6459 54.984 54.0219 55.512C53.4459 55.992 52.6779 56.232 51.7179 56.232H50.7819ZM65.4863 56.232C64.6223 56.232 63.9263 55.992 63.3983 55.512C62.9183 54.984 62.6783 54.288 62.6783 53.424V19.656C62.6783 18.792 62.9183 18.12 63.3983 17.64C63.9263 17.112 64.6223 16.848 65.4863 16.848C66.3023 16.848 66.9503 17.112 67.4303 17.64C67.9583 18.12 68.2223 18.792 68.2223 19.656V53.424C68.2223 54.288 67.9583 54.984 67.4303 55.512C66.9503 55.992 66.3023 56.232 65.4863 56.232ZM65.4143 9.36C64.3583 9.36 63.4463 8.976 62.6783 8.208C61.9103 7.44 61.5263 6.504 61.5263 5.4C61.5263 4.2 61.9103 3.264 62.6783 2.592C63.4943 1.872 64.4303 1.512 65.4863 1.512C66.4943 1.512 67.3823 1.872 68.1503 2.592C68.9663 3.264 69.3743 4.2 69.3743 5.4C69.3743 6.504 68.9903 7.44 68.2223 8.208C67.4543 8.976 66.5183 9.36 65.4143 9.36ZM99.1148 56.592C95.2268 56.592 91.7708 55.752 88.7468 54.072C85.7708 52.344 83.4188 49.968 81.6908 46.944C80.0108 43.92 79.1708 40.464 79.1708 36.576C79.1708 32.64 79.9628 29.184 81.5468 26.208C83.1788 23.184 85.4108 20.808 88.2428 19.08C91.0748 17.352 94.3388 16.488 98.0348 16.488C101.683 16.488 104.851 17.328 107.539 19.008C110.275 20.64 112.387 22.92 113.875 25.848C115.363 28.776 116.107 32.112 116.107 35.856C116.107 36.624 115.867 37.248 115.387 37.728C114.907 38.16 114.283 38.376 113.515 38.376H82.9148V33.768H114.091L110.995 36C111.043 33.216 110.539 30.72 109.483 28.512C108.427 26.304 106.915 24.576 104.947 23.328C103.027 22.08 100.723 21.456 98.0348 21.456C95.2988 21.456 92.8988 22.104 90.8348 23.4C88.7708 24.696 87.1628 26.496 86.0108 28.8C84.9068 31.056 84.3548 33.648 84.3548 36.576C84.3548 39.504 84.9788 42.096 86.2268 44.352C87.5228 46.608 89.2748 48.384 91.4828 49.68C93.6908 50.976 96.2348 51.624 99.1148 51.624C100.843 51.624 102.571 51.336 104.299 50.76C106.075 50.136 107.491 49.368 108.547 48.456C109.075 48.024 109.675 47.808 110.347 47.808C111.019 47.76 111.595 47.928 112.075 48.312C112.699 48.888 113.011 49.512 113.011 50.184C113.059 50.856 112.795 51.432 112.219 51.912C110.635 53.256 108.619 54.384 106.171 55.296C103.723 56.16 101.371 56.592 99.1148 56.592ZM88.3148 9C87.5468 9 86.8748 8.784 86.2988 8.352C85.7708 7.872 85.5068 7.224 85.5068 6.408C85.5068 5.64 85.7708 5.016 86.2988 4.536C86.8748 4.056 87.5468 3.816 88.3148 3.816H106.963C107.731 3.816 108.379 4.056 108.907 4.536C109.483 5.016 109.771 5.64 109.771 6.408C109.771 7.224 109.483 7.872 108.907 8.352C108.379 8.784 107.731 9 106.963 9H88.3148Z" fill="black"/>
</svg>
