<svg width="40" height="40" viewBox="0 0 40 40" fill="none" xmlns="http://www.w3.org/2000/svg">
<foreignObject x="-4" y="-4" width="48" height="48"><div xmlns="http://www.w3.org/1999/xhtml" style="backdrop-filter:blur(2px);clip-path:url(#bgblur_0_1_1030_clip_path);height:100%;width:100%"></div></foreignObject><g data-figma-bg-blur-radius="4">
<path d="M28 29V27C28 25.9391 27.5786 24.9217 26.8284 24.1716C26.0783 23.4214 25.0609 23 24 23H16C14.9391 23 13.9217 23.4214 13.1716 24.1716C12.4214 24.9217 12 25.9391 12 27V29M24 15C24 17.2091 22.2091 19 20 19C17.7909 19 16 17.2091 16 15C16 12.7909 17.7909 11 20 11C22.2091 11 24 12.7909 24 15Z" stroke="currentColor" stroke-width="1.5" stroke-linecap="round" stroke-linejoin="round"/>
</g>
<defs>
<clipPath id="bgblur_0_1_1030_clip_path" transform="translate(4 4)"><rect width="40" height="40" rx="20"/>
</clipPath></defs>
</svg>
